<svg width="482" height="482" viewBox="0 0 482 482" fill="none" xmlns="http://www.w3.org/2000/svg">
<path d="M433.767 334.026C443.494 313.804 449.977 292.176 452.979 269.938L241.054 241.334L433.767 334.026Z" fill="#21426F"/>
<path d="M342.48 429.598C362.235 418.954 380.192 405.268 395.692 389.041L241.054 241.334L342.48 429.598Z" fill="#21426F"/>
<path d="M212.451 453.259C234.689 456.261 257.262 455.743 279.339 451.726L241.054 241.334L212.451 453.259Z" fill="#21426F"/>
<path d="M93.3473 395.973C109.574 411.472 128.14 424.321 148.362 434.048L241.054 241.334L93.3473 395.973Z" fill="#21426F"/>
<path d="M30.6628 279.62C34.6803 301.697 42.1476 323.005 52.7908 342.76L241.054 241.334L30.6628 279.62Z" fill="#21426F"/>
<path d="M48.3405 148.643C38.6139 168.865 32.1308 190.493 29.1293 212.731L241.054 241.334L48.3405 148.643Z" fill="#21426F"/>
<path d="M139.628 53.0713C119.873 63.7144 101.916 77.4007 86.4159 93.6278L241.054 241.334L139.628 53.0713Z" fill="#21426F"/>
<path d="M269.657 29.4098C247.419 26.4084 224.847 26.9258 202.769 30.9433L241.054 241.334L269.657 29.4098Z" fill="#21426F"/>
<path d="M388.761 86.6964C372.534 71.1967 353.968 58.3478 333.746 48.6211L241.054 241.334L388.761 86.6964Z" fill="#21426F"/>
<path d="M451.445 203.049C447.428 180.972 439.96 159.664 429.317 139.909L241.054 241.334L451.445 203.049Z" fill="#21426F"/>
</svg>
